<?xml version="1.0" encoding="UTF-8" standalone="no"?>
<svg
   xmlns:dc="http://purl.org/dc/elements/1.1/"
   xmlns:cc="http://creativecommons.org/ns#"
   xmlns:rdf="http://www.w3.org/1999/02/22-rdf-syntax-ns#"
   xmlns:svg="http://www.w3.org/2000/svg"
   xmlns="http://www.w3.org/2000/svg"
   xml:space="preserve"
   viewBox="0 0 51.969 96.121997"
   height="511.99466"
   width="276.81046"
   y="0px"
   x="0px"
   id="Capa_1"
   class="facebook-teste"
   version="1.1"><metadata
     id="metadata41"><rdf:RDF><cc:Work
         rdf:about=""><dc:format>image/svg+xml</dc:format><dc:type
           rdf:resource="http://purl.org/dc/dcmitype/StillImage" /><dc:title></dc:title></cc:Work></rdf:RDF></metadata><defs
     id="defs39" /><g
     transform="translate(-22.077,-5.0132574e-4)"

     style="fill:#181818;fill-opacity:1"
     id="g3"><path
       style="fill:#181818;fill-opacity:1"
       id="path5"
       d="M 72.089,0.02 59.624,0 C 45.62,0 36.57,9.285 36.57,23.656 l 0,10.907 -12.533,0 c -1.083,0 -1.96,0.878 -1.96,1.961 l 0,15.803 c 0,1.083 0.878,1.96 1.96,1.96 l 12.533,0 0,39.876 c 0,1.083 0.877,1.96 1.96,1.96 l 16.352,0 c 1.083,0 1.96,-0.878 1.96,-1.96 l 0,-39.876 14.654,0 c 1.083,0 1.96,-0.877 1.96,-1.96 l 0.006,-15.803 c 0,-0.52 -0.207,-1.018 -0.574,-1.386 -0.367,-0.368 -0.867,-0.575 -1.387,-0.575 l -14.659,0 0,-9.246 c 0,-4.444 1.059,-6.7 6.848,-6.7 l 8.397,-0.003 c 1.082,0 1.959,-0.878 1.959,-1.96 l 0,-14.674 c 0,-1.081 -0.876,-1.958 -1.957,-1.96 z" /></g><g
     transform="translate(-22.077,-5.0132574e-4)"
     id="g7" /><g
     transform="translate(-22.077,-5.0132574e-4)"
     id="g9" /><g
     transform="translate(-22.077,-5.0132574e-4)"
     id="g11" /><g
     transform="translate(-22.077,-5.0132574e-4)"
     id="g13" /><g
     transform="translate(-22.077,-5.0132574e-4)"
     id="g15" /><g
     transform="translate(-22.077,-5.0132574e-4)"
     id="g17" /><g
     transform="translate(-22.077,-5.0132574e-4)"
     id="g19" /><g
     transform="translate(-22.077,-5.0132574e-4)"
     id="g21" /><g
     transform="translate(-22.077,-5.0132574e-4)"
     id="g23" /><g
     transform="translate(-22.077,-5.0132574e-4)"
     id="g25" /><g
     transform="translate(-22.077,-5.0132574e-4)"
     id="g27" /><g
     transform="translate(-22.077,-5.0132574e-4)"
     id="g29" /><g
     transform="translate(-22.077,-5.0132574e-4)"
     id="g31" /><g
     transform="translate(-22.077,-5.0132574e-4)"
     id="g33" /><g
     transform="translate(-22.077,-5.0132574e-4)"
     id="g35" /></svg>
